<svg width="60" height="59" viewBox="0 0 60 59" fill="none" xmlns="http://www.w3.org/2000/svg">
<circle cx="30" cy="29.5" r="29" stroke="black"/>
<path d="M36 26.16C35.94 26.15 35.87 26.15 35.81 26.16C34.43 26.11 33.33 24.98 33.33 23.58C33.33 22.15 34.48 21 35.91 21C37.34 21 38.49 22.16 38.49 23.58C38.48 24.98 37.38 26.11 36 26.16Z" stroke="#292D32" stroke-width="1.5" stroke-linecap="round" stroke-linejoin="round"/>
<path d="M34.97 33.44C36.34 33.67 37.85 33.43 38.91 32.72C40.32 31.78 40.32 30.24 38.91 29.3C37.84 28.59 36.31 28.35 34.94 28.59" stroke="#292D32" stroke-width="1.5" stroke-linecap="round" stroke-linejoin="round"/>
<path d="M23.97 26.16C24.03 26.15 24.1 26.15 24.16 26.16C25.54 26.11 26.64 24.98 26.64 23.58C26.64 22.15 25.49 21 24.06 21C22.63 21 21.48 22.16 21.48 23.58C21.49 24.98 22.59 26.11 23.97 26.16Z" stroke="#292D32" stroke-width="1.5" stroke-linecap="round" stroke-linejoin="round"/>
<path d="M25 33.44C23.63 33.67 22.12 33.43 21.06 32.72C19.65 31.78 19.65 30.24 21.06 29.3C22.13 28.59 23.66 28.35 25.03 28.59" stroke="#292D32" stroke-width="1.5" stroke-linecap="round" stroke-linejoin="round"/>
<path d="M30 33.63C29.94 33.62 29.87 33.62 29.81 33.63C28.43 33.58 27.33 32.45 27.33 31.05C27.33 29.62 28.48 28.47 29.91 28.47C31.34 28.47 32.49 29.63 32.49 31.05C32.48 32.45 31.38 33.59 30 33.63Z" stroke="#292D32" stroke-width="1.5" stroke-linecap="round" stroke-linejoin="round"/>
<path d="M27.09 36.78C25.68 37.72 25.68 39.26 27.09 40.2C28.69 41.27 31.31 41.27 32.91 40.2C34.32 39.26 34.32 37.72 32.91 36.78C31.32 35.72 28.69 35.72 27.09 36.78Z" stroke="#292D32" stroke-width="1.5" stroke-linecap="round" stroke-linejoin="round"/>
</svg>
