<svg width="60" height="59" viewBox="0 0 60 59" fill="none" xmlns="http://www.w3.org/2000/svg">
<circle cx="30" cy="29.5" r="29" stroke="black"/>
<path d="M40 34.74V22.67C40 21.47 39.02 20.58 37.83 20.68H37.77C35.67 20.86 32.48 21.93 30.7 23.05L30.53 23.16C30.24 23.34 29.76 23.34 29.47 23.16L29.22 23.01C27.44 21.9 24.26 20.84 22.16 20.67C20.97 20.57 20 21.47 20 22.66V34.74C20 35.7 20.78 36.6 21.74 36.72L22.03 36.76C24.2 37.05 27.55 38.15 29.47 39.2L29.51 39.22C29.78 39.37 30.21 39.37 30.47 39.22C32.39 38.16 35.75 37.05 37.93 36.76L38.26 36.72C39.22 36.6 40 35.7 40 34.74Z" stroke="#292D32" stroke-width="1.5" stroke-linecap="round" stroke-linejoin="round"/>
<path d="M30 23.49V38.49" stroke="#292D32" stroke-width="1.5" stroke-linecap="round" stroke-linejoin="round"/>
<path d="M25.75 26.49H23.5" stroke="#292D32" stroke-width="1.5" stroke-linecap="round" stroke-linejoin="round"/>
<path d="M26.5 29.49H23.5" stroke="#292D32" stroke-width="1.5" stroke-linecap="round" stroke-linejoin="round"/>
</svg>
