<svg width="60" height="59" viewBox="0 0 60 59" fill="none" xmlns="http://www.w3.org/2000/svg">
<circle cx="30" cy="29.5" r="29" stroke="black"/>
<path d="M30.16 28.87C30.06 28.86 29.94 28.86 29.83 28.87C27.45 28.79 25.56 26.84 25.56 24.44C25.56 21.99 27.54 20 30 20C32.45 20 34.44 21.99 34.44 24.44C34.43 26.84 32.54 28.79 30.16 28.87Z" stroke="#292D32" stroke-width="1.5" stroke-linecap="round" stroke-linejoin="round"/>
<path d="M25.16 32.56C22.74 34.18 22.74 36.82 25.16 38.43C27.91 40.27 32.42 40.27 35.17 38.43C37.59 36.81 37.59 34.17 35.17 32.56C32.43 30.73 27.92 30.73 25.16 32.56Z" stroke="#292D32" stroke-width="1.5" stroke-linecap="round" stroke-linejoin="round"/>
</svg>
