<svg width="60" height="59" viewBox="0 0 60 59" fill="none" xmlns="http://www.w3.org/2000/svg">
<circle cx="30" cy="29.5" r="29" stroke="black"/>
<path d="M30 40C35.5228 40 40 35.5228 40 30C40 24.4772 35.5228 20 30 20C24.4772 20 20 24.4772 20 30C20 35.5228 24.4772 40 30 40Z" stroke="#292D32" stroke-width="1.5" stroke-linecap="round" stroke-linejoin="round"/>
<path d="M26 21H27C25.05 26.84 25.05 33.16 27 39H26" stroke="#292D32" stroke-width="1.5" stroke-linecap="round" stroke-linejoin="round"/>
<path d="M33 21C34.95 26.84 34.95 33.16 33 39" stroke="#292D32" stroke-width="1.5" stroke-linecap="round" stroke-linejoin="round"/>
<path d="M21 34V33C26.84 34.95 33.16 34.95 39 33V34" stroke="#292D32" stroke-width="1.5" stroke-linecap="round" stroke-linejoin="round"/>
<path d="M21 27C26.84 25.05 33.16 25.05 39 27" stroke="#292D32" stroke-width="1.5" stroke-linecap="round" stroke-linejoin="round"/>
</svg>
