<svg width="60" height="59" viewBox="0 0 60 59" fill="none" xmlns="http://www.w3.org/2000/svg">
<circle cx="30" cy="29.5" r="29" stroke="black"/>
<path d="M20.29 25.78V35.51C20.29 37.41 21.64 38.19 23.28 37.25L25.63 35.91C26.14 35.62 26.99 35.59 27.52 35.86L32.77 38.49C33.3 38.75 34.15 38.73 34.66 38.44L38.99 35.96C39.54 35.64 40 34.86 40 34.22V24.49C40 22.59 38.65 21.81 37.01 22.75L34.66 24.09C34.15 24.38 33.3 24.41 32.77 24.14L27.52 21.52C26.99 21.26 26.14 21.28 25.63 21.57L21.3 24.05C20.74 24.37 20.29 25.15 20.29 25.78Z" stroke="#292D32" stroke-width="1.5" stroke-linecap="round" stroke-linejoin="round"/>
<path d="M26.56 22V35" stroke="#292D32" stroke-width="1.5" stroke-linecap="round" stroke-linejoin="round"/>
<path d="M33.73 24.62V38" stroke="#292D32" stroke-width="1.5" stroke-linecap="round" stroke-linejoin="round"/>
</svg>
