<svg width="60" height="59" viewBox="0 0 60 59" fill="none" xmlns="http://www.w3.org/2000/svg">
<circle cx="30" cy="29.5" r="29" stroke="black"/>
<path d="M22.3313 38.192V36.4C23.3553 35.9093 24.3153 35.216 25.2113 34.32C26.1073 33.4027 26.8859 32.368 27.5473 31.216C28.2299 30.0427 28.7633 28.8373 29.1473 27.6C29.5313 26.3413 29.7339 25.136 29.7552 23.984H31.9313C31.9313 25.52 31.6006 27.0667 30.9392 28.624C30.2992 30.16 29.4246 31.6107 28.3153 32.976C27.2059 34.32 25.9579 35.4613 24.5713 36.4H31.8353V33.008H33.8833V36.4H36.3793V38.192H33.8833V42H31.8353V38.192H22.3313Z" fill="black"/>
</svg>
